#!OML:ASF H:\ColoradoDance\Project 1\Capture day 1\Session 8\male.ASF
:FULLY-SPECIFIED
:DEGREES
77
upperback 0.284243 -0.709006 -9.195320
rfoot -27.160999 -7.288530
lradius 27.839300
lthumb 1.162540 15.633000
rradius 36.552502
lwrist 22.458599
rhand -42.801102 11.887100
rhumerus 30.299299 -56.232498 -8.146560
lowerneck 2.556200 15.590800 10.636000
lhand -25.361401 -14.343600
ltibia 135.675995
head 4.194330 10.331600 -0.217331
rwrist -14.746100
lfingers 7.125020
rtoes 2.949850
lowerback 3.686480 0.230284 -8.714720
rfingers 7.125020
lclavicle 0.000000 0.000000
upperneck 11.200700 20.249500 2.346560
rfemur -10.838000 -15.213500 48.056099
thorax -1.831100 -0.516715 -4.675630
rclavicle 0.000000 0.000000
rtibia 30.015100
lfoot 38.494400 0.329365
lhumerus 56.312000 67.358299 47.301498
rthumb -15.666800 -17.498600
root -5.719410 18.564501 4.986780 -243.169006 -76.717400 -115.375999
ltoes 24.864000
lfemur -86.779900 62.955101 -1.552010
78
upperback 0.088578 -0.005122 -8.368860
rfoot -24.752701 -3.837040
lradius 28.506201
lthumb 0.595318 22.646601
rradius 36.005798
lwrist 25.293200
rhand -38.639000 14.676300
rhumerus 47.716900 -55.056000 -20.445601
lowerneck 2.317790 15.912700 9.543510
lhand -25.948700 -7.332270
ltibia 130.227005
head 3.551530 10.468100 0.369759
rwrist -17.773399
lfingers 7.125020
rtoes 7.340150
lowerback 3.047340 0.632127 -7.918720
rfingers 7.125020
lclavicle 0.000000 -0.000000
upperneck 10.231500 20.570601 3.978670
rfemur -9.824810 -11.128500 53.439201
thorax -1.653880 -0.148646 -4.265230
rclavicle 0.000000 -0.000000
rtibia 28.496000
lfoot 34.733101 9.695380
lhumerus 62.792900 69.274300 61.284500
rthumb -11.655600 -14.979500
root -5.670130 18.391001 4.622320 -230.237000 -70.197601 -126.348000
ltoes 25.896601
lfemur -86.590897 47.742199 -5.301490
79
upperback 0.054813 1.396740 -8.450770
rfoot -23.918301 -1.058520
lradius 30.046700
lthumb 3.262560 33.543098
rradius 39.914501
lwrist 32.889900
rhand -19.098499 18.729000
rhumerus 69.573097 -45.295101 -34.237598
lowerneck -1.163740 13.506200 8.629630
lhand -23.187000 3.588290
ltibia 105.182999
head 4.445100 8.460290 2.706050
rwrist -27.675800
lfingers 7.125020
rtoes 9.485360
lowerback 3.399040 1.623650 -4.711590
rfingers 7.125020
lclavicle -0.000000 0.000000
upperneck 13.139700 16.000999 10.303000
rfemur -10.944500 -4.993580 58.129002
thorax -1.772660 0.530058 -6.227510
rclavicle -0.000000 0.000000
rtibia 30.312700
lfoot 31.260799 11.843600
lhumerus 50.831299 67.734398 72.646400
rthumb 7.210030 -11.128100
root -5.415280 18.100901 4.372090 -217.574997 -62.102200 -135.723999
ltoes 21.422701
lfemur -77.979698 24.168800 -11.458600
80
upperback -0.143979 6.982020 -12.479800
rfoot -23.620399 6.181410
lradius 29.507099
lthumb 30.023600 55.647598
rradius 51.075901
lwrist 35.672699
rhand -14.871800 14.834500
rhumerus 75.859703 -23.640600 -36.752399
lowerneck -8.758210 4.777740 10.860600
lhand 4.636970 28.064600
ltibia 64.708504
head 6.098020 1.808240 3.924060
rwrist -34.586102
lfingers 7.125020
rtoes 9.861750
lowerback 2.561370 5.906980 0.205128
rfingers 7.125020
lclavicle 0.000000 -0.000000
upperneck 14.667900 0.928710 17.627501
rfemur -14.858700 1.809600 57.978199
thorax 0.063129 3.256650 -13.749700
rclavicle 0.000000 -0.000000
rtibia 34.802502
lfoot 19.863400 -20.004601
lhumerus 39.605900 51.413300 100.117996
rthumb 11.288300 -14.841700
root -5.251860 17.985600 4.221790 -198.957001 -52.166901 -147.899002
ltoes 4.004000
lfemur -62.243500 -3.552770 -0.937988
81
upperback -1.689690 7.920710 -11.021900
rfoot -27.028500 7.258850
lradius 33.175999
lthumb 43.003601 -98.226700
rradius 50.083099
lwrist 47.891602
rhand 18.420900 -12.726900
rhumerus 71.395798 38.030102 -64.323997
lowerneck -5.827120 -1.729060 3.508970
lhand 18.359200 73.982002
ltibia 56.231998
head 5.628500 -2.587920 4.808590
rwrist -40.829899
lfingers 7.125020
rtoes -4.634920
lowerback 0.942215 6.526980 1.467480
rfingers 7.125020
lclavicle -0.000000 0.000000
upperneck 13.415400 -6.794040 18.665800
rfemur -14.930900 4.318970 52.500301
thorax -0.480246 3.684010 -12.663000
rclavicle -0.000000 0.000000
rtibia 41.871201
lfoot -5.105600 -20.823299
lhumerus 5.387460 -6.110070 105.787003
rthumb 43.061298 -36.951199
root -5.769010 17.940901 4.179580 -178.147995 -25.133499 -161.533997
ltoes -6.574600
lfemur -54.957500 -14.167800 12.911500
82
upperback -0.233360 3.536900 -2.842800
rfoot -26.409000 -9.111370
lradius 64.414398
lthumb 0.267804 -45.335800
rradius 54.452702
lwrist 238.914001
rhand -1.072030 7.833970
rhumerus 6.538750 45.248299 -84.793701
lowerneck -3.740540 -12.892200 -9.782100
lhand -26.287800 284.684998
ltibia 54.319000
head 6.576290 -8.456120 4.777350
rwrist -56.798100
lfingers 7.125020
rtoes -19.032000
lowerback 0.815803 2.637520 -5.335110
rfingers 7.125020
lclavicle -0.000000 -0.000000
upperneck 11.956300 -18.437099 15.025800
rfemur -25.440001 -16.878700 32.602699
thorax -0.836097 1.826140 0.002873
rclavicle -0.000000 -0.000000
rtibia 60.880402
lfoot -23.874399 6.985480
lhumerus -15.200800 -47.053299 103.983002
rthumb 24.563200 -20.610300
root -7.708730 18.427299 3.873180 -166.660004 31.127600 -170.328995
ltoes -11.999100
lfemur -35.345501 -4.414330 0.151261
83
upperback 0.113129 2.260880 -0.996555
rfoot -25.117500 -11.652900
lradius 62.878300
lthumb 29.269501 24.952801
rradius 27.830099
lwrist 29.356501
rhand 11.217700 22.156300
rhumerus -3.117450 21.584299 -76.546402
lowerneck -5.189220 -12.610400 -5.652690
lhand 3.846870 357.235992
ltibia 57.204700
head 5.513470 -8.295950 3.357560
rwrist -22.511999
lfingers 7.125020
rtoes -9.956220
lowerback 2.635750 1.819730 -5.443410
rfingers 7.125020
lclavicle 0.000000 -0.000000
upperneck 10.062100 -17.862700 12.266300
rfemur -36.257401 -24.817699 38.365398
thorax -1.531640 1.169280 1.930520
rclavicle 0.000000 -0.000000
rtibia 49.900398
lfoot -24.601601 19.304899
lhumerus -48.862000 -4.321980 78.320396
rthumb 36.280300 -4.090820
root -8.009080 18.754101 2.937770 -84.491699 82.688004 -94.978401
ltoes -9.612190
lfemur -22.291300 6.725150 -5.667180
84
upperback -0.328701 2.913820 3.266990
rfoot -28.863199 -9.540500
lradius 25.099001
lthumb -10.454600 77.291603
rradius 10.658200
lwrist 30.053400
rhand -6.123580 -33.469200
rhumerus -45.970200 -23.754400 -40.920601
lowerneck -3.441970 -13.416800 -10.163500
lhand -37.393902 407.571991
ltibia 60.128799
head 5.597770 -8.958670 3.399870
rwrist 13.846500
lfingers 7.125020
rtoes -9.901630
lowerback 3.110090 2.051190 1.888760
rfingers 7.125020
lclavicle 0.000000 0.000000
upperneck 10.403600 -18.490400 10.210400
rfemur -27.610800 2.743520 35.333801
thorax -2.158230 1.467730 2.154430
rclavicle 0.000000 0.000000
rtibia 47.452801
lfoot -23.041201 0.365409
lhumerus -70.874901 19.328800 13.872900
rthumb 19.713600 -62.489498
root -6.491840 18.553301 2.731820 -11.143300 59.640099 -23.482100
ltoes 2.523040
lfemur -35.067600 -7.257980 5.995440
85
upperback 0.269977 -0.623863 4.953460
rfoot -30.288799 -5.914490
lradius 22.286800
lthumb -14.458000 53.231499
rradius 30.261400
lwrist 30.477600
rhand -27.771000 -100.485001
rhumerus -95.886597 -29.511600 60.581902
lowerneck -2.468290 -8.659810 -5.183440
lhand -41.546299 383.755005
ltibia 49.105801
head 3.944850 -5.740160 0.221973
rwrist 204.524994
lfingers 7.125020
rtoes -16.083401
lowerback -0.498488 -0.466220 3.355940
rfingers 7.125020
lclavicle 0.000000 -0.000000
upperneck 9.850120 -11.220700 -0.523612
rfemur -16.967600 14.070800 28.141199
thorax 0.576055 -0.288667 3.207080
rclavicle 0.000000 -0.000000
rtibia 43.040401
lfoot -21.856501 -5.426390
lhumerus -75.897903 20.359699 -17.381300
rthumb -1.164740 70.508003
root -4.440510 18.681601 2.983400 -2.321120 42.467800 -12.339600
ltoes -11.400300
lfemur -31.527800 -6.304610 -2.359450
86
upperback 1.627110 -3.223410 5.890140
rfoot 10.770400 -14.656000
lradius 16.559401
lthumb 1.715160 61.637199
rradius 28.047501
lwrist -26.329700
rhand -38.970001 -94.908401
rhumerus -132.914001 -57.528801 126.973999
lowerneck -1.464230 -3.177190 1.637640
lhand -24.789200 391.664001
ltibia 40.198799
head 3.037300 -2.046740 -2.184230
rwrist 208.869995
lfingers 7.125020
rtoes 2.362220
lowerback 4.134980 -2.430990 -1.305160
rfingers 7.125020
lclavicle -0.000000 -0.000000
upperneck 9.109050 -3.868190 -5.459940
rfemur -44.036499 -3.926580 33.000999
thorax -0.221235 -1.640970 6.992550
rclavicle -0.000000 -0.000000
rtibia 64.799797
lfoot -24.189301 8.882420
lhumerus -85.085602 80.806297 -78.490700
rthumb -11.974700 65.271004
root -3.113170 19.024799 2.387030 -6.949790 25.002501 -9.524070
ltoes -2.880990
lfemur -12.624200 -8.187650 -9.671510
87
upperback 4.859500 -5.282300 7.542270
rfoot 26.815001 1.329450
lradius 14.149400
lthumb -9.324090 30.835100
rradius 25.007000
lwrist -16.551701
rhand -8.574930 37.315899
rhumerus -250.533005 -46.851002 260.716003
lowerneck -2.221500 -2.223790 1.603160
lhand -36.222099 361.061005
ltibia -0.000000
head 2.493110 -1.451090 -2.388310
rwrist 178.654999
lfingers 7.125020
rtoes -3.371440
lowerback 14.899800 -4.416400 1.162570
rfingers 7.125020
lclavicle -0.000000 0.000000
upperneck 6.941640 -2.631720 -6.286620
rfemur -92.650002 -10.601000 20.765400
thorax -2.519880 -2.659280 8.260780
rclavicle -0.000000 0.000000
rtibia 16.491301
lfoot -2.704650 12.057300
lhumerus -72.493202 165.871994 -76.081299
rthumb 17.355600 8.070770
root -2.208050 20.010500 1.357140 -17.692101 22.887699 -11.043300
ltoes -0.079927
lfemur 16.631201 -5.088050 -13.045400
